#!OML:ASF E:\emotionWalksFemale\Project 1\Capture day 1\Session 1\Female1.ASF
:FULLY-SPECIFIED
:DEGREES
234
root 7.15455 15.2654 24.3943 -180.03 -0.109855 -184.979
lowerback 7.1447 0.596552 -4.64271
upperback -3.15389 0.094562 -1.82363
thorax -7.34869 0.17506 0.682527
lowerneck -2.94392 -1.97882 -4.59412
upperneck 12.0958 -3.03935 2.04083
head 4.66167 -1.79518 1.34718
rclavicle 1.00635e-015 1.46107e-014
rhumerus -42.8633 10.6494 -94.6457
rradius 33.6384
rwrist 15.4291
rhand -6.52916 -56.7553
rfingers 7.12502
rthumb 19.3236 -85.8152
lclavicle 1.00635e-015 1.46107e-014
lhumerus -34.61 -2.84513 83.7663
lradius 37.8775
lwrist -9.01949
lhand -9.17638 -34.646
lfingers 7.12502
lthumb 16.7767 -5.35087
rfemur -29.5222 -0.0341955 19.3298
rtibia 46.349
rfoot -16.3068 -24.7365
rtoes 12.0554
lfemur -0.437969 -17.6596 -34.2592
ltibia 20.1701
lfoot -22.5354 22.7789
ltoes -18.8865
235
root 7.16546 15.268 24.2727 -180.103 -0.36881 -184.892
lowerback 7.12201 0.437061 -4.79367
upperback -3.13928 -0.111977 -1.64848
thorax -7.31016 0.088324 0.978857
lowerneck -2.97971 -1.88982 -4.62991
upperneck 12.0673 -2.8976 1.92635
head 4.6507 -1.73096 1.3215
rclavicle 3.73964e-015 -2.57426e-014
rhumerus -42.8184 10.9012 -94.4606
rradius 33.82
rwrist 15.6413
rhand -6.8428 -56.7075
rfingers 7.12502
rthumb 19.022 -85.7973
lclavicle 3.73964e-015 -2.57426e-014
lhumerus -34.671 -2.9235 84.0535
lradius 38.1564
lwrist -8.60373
lhand -9.23614 -34.5178
lfingers 7.12502
lthumb 16.7191 -5.21776
rfemur -29.1692 0.955929 19.1853
rtibia 43.6182
rfoot -16.4223 -25.4638
rtoes 11.5525
lfemur 0.380112 -17.5408 -34.2867
ltibia 19.7061
lfoot -21.9461 23.0871
ltoes -21.8339
236
root 7.16638 15.2562 24.1601 -180.103 0.0277159 -184.95
lowerback 7.12412 0.43022 -4.8755
upperback -3.20557 0.0655548 -1.62936
thorax -7.38564 0.264987 1.00959
lowerneck -3.04816 -1.8594 -4.62356
upperneck 12.1497 -2.86049 1.94438
head 4.69364 -1.71369 1.32795
rclavicle -3.43525e-015 1.95803e-014
rhumerus -42.8347 10.8581 -94.325
rradius 33.8724
rwrist 15.4036
rhand -7.3403 -56.703
rfingers 7.12502
rthumb 18.5435 -85.8392
lclavicle -3.43525e-015 1.95803e-014
lhumerus -34.6601 -3.2255 84.2874
lradius 38.2218
lwrist -8.33599
lhand -9.4156 -34.9132
lfingers 7.12502
lthumb 16.5463 -5.59861
rfemur -29.1383 2.2075 18.8263
rtibia 40.9025
rfoot -15.9755 -25.8412
rtoes 11.6761
lfemur 1.07496 -17.3133 -34.5498
ltibia 19.1841
lfoot -21.6178 23.7309
ltoes -23.5508
237
root 7.16856 15.2437 24.0452 -179.991 0.364475 -185.06
lowerback 6.96691 0.557293 -4.92968
upperback -3.26173 0.240453 -1.72058
thorax -7.36444 0.354577 0.920503
lowerneck -3.07036 -1.91033 -4.40792
upperneck 12.1256 -2.93717 1.9182
head 4.68619 -1.74091 1.27592
rclavicle -9.4547e-015 2.41523e-014
rhumerus -42.7393 10.3936 -94.1355
rradius 33.4817
rwrist 15.5554
rhand -6.66278 -56.3619
rfingers 7.12502
rthumb 19.1951 -85.4347
lclavicle -9.4547e-015 2.41523e-014
lhumerus -34.6807 -3.96989 84.5374
lradius 38.358
lwrist -7.9599
lhand -9.4457 -35.1231
lfingers 7.12502
lthumb 16.5174 -5.80617
rfemur -29.1801 3.59295 18.3061
rtibia 38.1999
rfoot -16.3199 -26.2839
rtoes 15.4147
lfemur 1.74274 -17.2154 -34.826
ltibia 18.5791
lfoot -21.7678 24.0125
ltoes -23.2773
238
root 7.17372 15.2401 23.9257 -180.029 0.347218 -185.072
lowerback 6.95357 0.540324 -4.95712
upperback -3.26102 0.216511 -1.70652
thorax -7.35501 0.344232 0.953991
lowerneck -3.08388 -1.9453 -4.19193
upperneck 12.0462 -2.96932 1.72709
head 4.65077 -1.75235 1.1699
rclavicle -3.46631e-015 1.99779e-014
rhumerus -42.7761 10.4787 -94.2326
rradius 33.6603
rwrist 14.7311
rhand -5.1295 -57.4862
rfingers 7.12502
rthumb 20.669 -86.4056
lclavicle -3.46631e-015 1.99779e-014
lhumerus -34.6674 -4.27283 84.762
lradius 38.3456
lwrist -7.84733
lhand -9.30589 -35.1521
lfingers 7.12502
lthumb 16.652 -5.84642
rfemur -28.9175 5.05867 17.7825
rtibia 35.5872
rfoot -17.2742 -26.9804
rtoes 19.2115
lfemur 2.56149 -17.1319 -34.9808
ltibia 18.0068
lfoot -21.6508 24.1071
ltoes -24.1616
